<svg clip-rule="evenodd" fill-rule="evenodd" stroke-linejoin="round" stroke-miterlimit="2" viewBox="0 0 560 400" xmlns="http://www.w3.org/2000/svg"><g transform="matrix(4.34798 0 0 4.33333 97.3825 148)"><path d="m45.449 7.672h2.958v10.301h-2.958z"/><g fill-rule="nonzero"><path d="m43.543 11.875c-.319-.585-.775-1.085-1.325-1.455.68-.771 1.081-1.795 1.032-2.916-.1-2.223-2-3.939-4.224-3.939h-6.166v14.407h7.055c2.279 0 4.127-1.847 4.127-4.128 0-.713-.18-1.383-.499-1.969zm-4.087 3.652h-3.639v-3.536h3.618c.95 0 1.754.755 1.754 1.769 0 1.001-.802 1.767-1.733 1.767zm-.773-5.981h-2.866v-3.535h2.844c.951 0 1.755.754 1.755 1.768-.002 1-.804 1.767-1.733 1.767z"/><path d="m83.399 3.992h-3.403l-2.658 4.261-2.657-4.261h-3.404l4.36 6.99-4.36 6.991h3.404l2.657-4.261 2.658 4.261h3.403l-4.359-6.991z"/><path d="m58.956 12.243v5.729h-2.957v-6.242c0-.908-.749-1.641-1.665-1.615-.882.027-1.563.798-1.563 1.682v6.173h-2.958v-10.301h2.958v.491c.666-.315 1.408-.491 2.193-.491.393 0 .776.044 1.144.128 1.639.373 2.797 1.837 2.839 3.517.006.302.009.614.009.929z"/></g><path d="m45.449 3.565h2.958v2.958h-2.958z"/><path d="m70.485 7.672h-5.101c-.017 0-.033-.002-.051-.002-2.844 0-5.15 2.307-5.15 5.152 0 2.831 2.283 5.127 5.106 5.148.013.003.028.003.044.003 1.098 0 2.194.322 2.194 1.277 0 .969-.993 1.792-2.194 1.792-1.211 0-2.193-.982-2.193-2.193h-2.958c0 2.844 2.307 5.151 5.15 5.151 2.846 0 5.15-2.307 5.15-5.151.001 0 .057-1.539-1.248-2.665.78-.901 1.249-2.074 1.249-3.362 0-.993-.28-1.919-.767-2.705h.769zm-5.152 7.343c-1.211 0-2.193-.982-2.193-2.193s.982-2.193 2.193-2.193 2.194.982 2.194 2.193-.983 2.193-2.194 2.193z" fill-rule="nonzero"/><path d="m28.007 0c-3.164 0-6.292.8-9.048 2.315-1.476.811-2.839 1.817-4.05 2.992-.285.275-.564.563-.831.857-.893.984-1.685 2.064-2.35 3.209-.236.411-.498.812-.778 1.195-.037.05-.072.1-.112.149-2.449 3.241-6.18 5.099-10.236 5.099v5.988c3.164 0 6.292-.8 9.048-2.314 1.473-.809 2.836-1.817 4.05-2.992.285-.276.564-.564.832-.857.894-.985 1.683-2.063 2.348-3.209l.044-.074c.225-.386.473-.762.734-1.12.037-.049.074-.1.113-.152 2.448-3.24 6.18-5.099 10.236-5.099z" fill="#2954fe" fill-rule="nonzero"/><path d="m28.007 15.818c-4.056 0-7.788-1.859-10.238-5.1-.036-.049-.074-.098-.111-.151-.279-.38-.541-.782-.777-1.194-.665-1.144-1.456-2.223-2.35-3.208-.267-.292-.546-.58-.831-.856-1.211-1.175-2.573-2.182-4.05-2.992-2.756-1.514-5.884-2.314-9.048-2.314v5.988c4.056 0 7.788 1.858 10.238 5.099.038.049.074.1.111.149.263.359.511.736.733 1.118l.047.078c.664 1.143 1.454 2.221 2.347 3.207.266.292.546.58.831.856 1.213 1.175 2.576 2.183 4.05 2.992 2.756 1.514 5.884 2.314 9.048 2.314z" fill="#2954fe" fill-rule="nonzero"/></g></svg>