<?xml version="1.0" encoding="UTF-8"?>
<!DOCTYPE svg PUBLIC "-//W3C//DTD SVG 1.1//EN" "http://www.w3.org/Graphics/SVG/1.1/DTD/svg11.dtd">
<!-- Creator: CorelDRAW 2020 (64-Bit) -->
<svg xmlns="http://www.w3.org/2000/svg" xml:space="preserve" width="1.39923in" height="1.48614in" version="1.1" style="shape-rendering:geometricPrecision; text-rendering:geometricPrecision; image-rendering:optimizeQuality; fill-rule:evenodd; clip-rule:evenodd"
viewBox="0 0 1044.2 1109.06"
 xmlns:xlink="http://www.w3.org/1999/xlink"
 xmlns:xodm="http://www.corel.com/coreldraw/odm/2003">
 <defs>
  <style type="text/css">
   <![CDATA[
    .str0 {stroke:black;stroke-width:5.18;stroke-miterlimit:2.61313;stroke-opacity:0.380392}
    .fil2 {fill:none}
    .fil0 {fill:#267A03}
    .fil1 {fill:#FFD69D;fill-opacity:0.380392}
   ]]>
  </style>
   <clipPath id="id0">
    <path d="M-0 0l1044.2 0 0 1109.06 -1044.2 0 0 -1109.06z"/>
   </clipPath>
 </defs>
 <g id="Layer_x0020_1">
  <metadata id="CorelCorpID_0Corel-Layer"/>
  <polygon class="fil0" points="-0,0 1044.2,0 1044.2,1109.06 -0,1109.06 "/>
  <g style="clip-path:url(#id0)">
   <g id="_1865001044080">
    <path id="1" class="fil1 str0" d="M986.68 -80.49l33.28 75.58c0.17,0.39 0.47,0.67 0.87,0.82 0.41,0.15 0.81,0.13 1.19,-0.06l74.07 -36.51c0.55,-0.27 1.18,-0.2 1.65,0.2 0.47,0.4 0.66,1 0.48,1.59l-23.09 79.29c-0.12,0.41 -0.07,0.81 0.14,1.19 0.21,0.37 0.54,0.61 0.95,0.72l80.21 19.65c0.6,0.15 1.03,0.61 1.14,1.21 0.11,0.61 -0.14,1.19 -0.65,1.53l-68.65 45.9c-0.36,0.24 -0.58,0.58 -0.66,1 -0.07,0.42 0.02,0.82 0.27,1.16l48.81 66.61c0.36,0.5 0.4,1.13 0.09,1.66 -0.31,0.54 -0.87,0.82 -1.48,0.76l-82.09 -8.96c-0.43,-0.05 -0.82,0.07 -1.15,0.35 -0.33,0.28 -0.51,0.64 -0.54,1.07l-5.42 82.4c-0.04,0.62 -0.42,1.12 -1,1.33 -0.58,0.21 -1.19,0.07 -1.62,-0.38l-57.12 -59.63c-0.3,-0.31 -0.67,-0.47 -1.1,-0.47 -0.43,0 -0.8,0.16 -1.1,0.47l-57.12 59.63c-0.43,0.45 -1.04,0.59 -1.62,0.38 -0.58,-0.21 -0.96,-0.71 -1,-1.33l-5.42 -82.4c-0.03,-0.43 -0.21,-0.79 -0.54,-1.07 -0.33,-0.28 -0.72,-0.39 -1.15,-0.35l-82.09 8.96c-0.61,0.07 -1.18,-0.22 -1.48,-0.75 -0.31,-0.53 -0.27,-1.16 0.09,-1.66l48.81 -66.61c0.26,-0.35 0.35,-0.74 0.27,-1.16 -0.08,-0.43 -0.3,-0.76 -0.66,-1l-68.65 -45.9c-0.51,-0.34 -0.76,-0.92 -0.65,-1.53 0.11,-0.61 0.54,-1.07 1.14,-1.21l80.21 -19.65c0.42,-0.1 0.74,-0.34 0.95,-0.72 0.21,-0.37 0.26,-0.77 0.14,-1.19l-23.09 -79.29c-0.17,-0.59 0.01,-1.2 0.48,-1.59 0.47,-0.4 1.1,-0.47 1.65,-0.2l74.07 36.51c0.38,0.19 0.79,0.21 1.19,0.06 0.41,-0.15 0.7,-0.42 0.87,-0.82l33.28 -75.58c0.25,-0.56 0.78,-0.91 1.39,-0.91 0.62,0 1.14,0.35 1.39,0.91z"/>
   </g>
  </g>
  <polygon class="fil2" points="-0,0 1044.2,0 1044.2,1109.06 -0,1109.06 "/>
 </g>
</svg>
