<?xml version="1.0" encoding="UTF-8"?>
<!DOCTYPE svg PUBLIC "-//W3C//DTD SVG 1.1//EN" "http://www.w3.org/Graphics/SVG/1.1/DTD/svg11.dtd">
<!-- Creator: CorelDRAW 2020 (64-Bit) -->
<svg xmlns="http://www.w3.org/2000/svg" xml:space="preserve" width="50px" height="50px" version="1.1" style="shape-rendering:geometricPrecision; text-rendering:geometricPrecision; image-rendering:optimizeQuality; fill-rule:evenodd; clip-rule:evenodd"
viewBox="0 0 262.23 237.46"
 xmlns:xlink="http://www.w3.org/1999/xlink"
 xmlns:xodm="http://www.corel.com/coreldraw/odm/2003">
 <defs>
  <style type="text/css">
   <![CDATA[
    .fil0 {fill:#FBE354}
   ]]>
  </style>
 </defs>
 <g id="Layer_x0020_1">
  <metadata id="CorelCorpID_0Corel-Layer"/>
  <path class="fil0" d="M128.48 40.53c-15.65,-10.48 -10.02,-18.88 -16.93,-23.51 -3.6,7.78 9.55,20.92 11.28,23.51 -3.67,-0.31 -5.82,-1.98 -8.2,-4.02 -1.42,-1.21 -2.04,-1.99 -3.26,-3.32 -2.06,-2.24 -1.83,-3.33 -5.1,-3.22 -9.79,0.34 -31.19,8.56 -39.55,12.74 -10.78,5.39 -23.63,14.96 -31.56,23.91 -9.16,10.33 -15.67,21.68 -20.74,34.75 -4.57,11.78 -10.48,30.29 -7.82,47.87 4.49,29.66 22.17,51.11 47.58,64.32 40.27,20.93 91.27,23.76 138.36,6.7 6.46,-2.34 13.4,-5.68 19.09,-9.12 3.46,-2.09 5.31,-3.3 8.62,-5.48 12.34,-8.13 25.68,-23.93 30.83,-38.75 5.36,-15.44 6.62,-31.06 2.47,-48.35 -10.36,-43.16 -39.66,-73.12 -82.21,-85.16 -13.01,-3.68 -20.32,-3.74 -31.9,-10.41 -3.1,-1.79 -5.41,-4.13 -8.15,-5.96 1.79,7.67 6.81,9.77 10.34,15.04 -10.82,-2.52 -18.34,-16.14 -20.69,-17.87 -4.47,9.32 6.58,22.8 7.52,26.33zm2.82 -23.51l0 0zm-104.15 185.95c-13.18,-12.04 -22.72,-30.54 -25.76,-48.52 -1.95,-11.51 -1.91,-21.55 0.54,-33.62 2.75,-13.55 7.16,-24.38 14.11,-35.72 3.41,-5.57 6.99,-9.86 9.95,-15.44 -2.6,-1.37 -4.35,-2.68 -6.75,-4.48 -2.75,-2.07 -3.85,-3.96 -5.11,-7.17 -7.72,-19.59 0.34,-36.55 15.47,-48.67 14.39,-11.53 54.69,-19.42 54.69,20.84 5.53,-2.65 17.04,-2.99 22.57,-5.64 -0.62,-7.48 -2.57,-8.48 2.82,-13.16 2.75,0.64 4.35,1.64 6.58,2.82 1.42,-6.08 4.59,-6.96 11.28,-7.52 13.58,20.29 39.09,18.35 49.84,23.51 0,-8.26 0.61,-13.6 3.9,-18.67 9.56,-14.74 31.07,-13.25 42.49,-7.04 38.13,20.75 29.61,60.35 12.85,64.26 0.53,6.41 22.37,25.18 25.34,63.98 8.06,105.12 -162.85,135.99 -234.81,70.26z"/>
  <path class="fil0" d="M99.4 111.3c-9.71,-17.08 -34.8,-17.11 -43.07,2 -8.59,19.82 9.8,39.04 30.31,31.25 13,-4.94 19.96,-20.57 12.76,-33.24zm12.73 5.14c0,17.44 -11.51,33.25 -26.8,40.9 -29.82,14.92 -58.77,-4.73 -58.77,-25.86 0,-29.65 21.05,-55.48 51.72,-55.48 10.27,0 19.34,6.56 24.07,12.6 6.03,7.71 9.78,17.71 9.78,27.83z"/>
  <path class="fil0" d="M86.51 121.53c7.47,0.2 5.61,-7.91 -0,-7.91 -4.54,0 -5.75,7.76 0,7.91zm-11.89 16.2c-15.63,-8.3 -6.55,-33.5 12.44,-28.44 17.71,4.72 8.7,39.66 -12.44,28.44z"/>
  <path class="fil0" d="M133.83 156.89c-19.23,4.95 -0.78,7.86 9.66,2.14 8.67,-4.75 -7.36,-2.73 -9.66,-2.14zm1.23 14.47c-10.09,3.22 -18.51,-1.85 -24.14,-7.63 -15.98,-16.37 21.43,-13.88 27.63,-13.1 23.98,3.02 8.54,16.89 -3.49,20.73z"/>
  <path class="fil0" d="M100.73 175.35c9,2.1 12.58,5.97 26.45,5.97 1.86,-3.87 2.82,-13.59 2.82,0 9.23,-0.77 29.83,-8.02 30.09,-19.75 7.87,5.77 -6.64,18.8 -19.91,22.4 -13.66,3.7 -33.08,0.88 -39.44,-8.62z"/>
  <path class="fil0" d="M161.4 111.3c9.71,-17.08 34.8,-17.11 43.07,2 8.59,19.82 -9.8,39.04 -30.31,31.25 -13,-4.94 -19.96,-20.57 -12.76,-33.24zm-12.73 5.14c0,17.44 11.51,33.25 26.8,40.9 29.82,14.92 58.77,-4.73 58.77,-25.86 0,-29.65 -21.05,-55.48 -51.72,-55.48 -10.27,0 -19.34,6.56 -24.07,12.6 -6.03,7.71 -9.78,17.71 -9.78,27.83z"/>
  <path class="fil0" d="M174.3 121.53c-7.47,0.2 -5.61,-7.91 0,-7.91 4.54,0 5.75,7.76 -0,7.91zm11.89 16.2c15.63,-8.3 6.55,-33.5 -12.44,-28.44 -17.71,4.72 -8.7,39.66 12.44,28.44z"/>
 </g>
</svg>
